<mxfile host="app.diagrams.net" modified="2024-05-05T10:30:44.359Z" agent="Mozilla/5.0 (Windows NT 10.0; Win64; x64) AppleWebKit/537.36 (KHTML, like Gecko) Chrome/124.0.0.0 Safari/537.36 Edg/124.0.0.0" version="24.2.7" etag="-C1f9dAbwZMU1Grb94XA" type="github">
  <diagram name="第 1 页" id="_6ce6P-6UFAXQUgQqYdO">
    <mxGraphModel>
      <root>
        <mxCell id="0" />
        <mxCell id="1" parent="0" />
      </root>
    </mxGraphModel>
  </diagram>
</mxfile>
